#!OML:ASF F:\VICON\USERDATA\INSTALL\rory3\rory3.ASF
:FULLY-SPECIFIED
:DEGREES
129
root 1.04925 12.2924 -2.38807 16.3286 1.14046 5.13278
lowerback 38.1311 0.193517 -3.84563
upperback 6.20007 -1.38364 -1.03895
thorax -11.7967 -0.482625 1.47691
lowerneck -15.7744 -3.05913 -6.81847
upperneck -22.5939 -2.31093 7.21427
head -4.16944 -0.889009 3.41739
rclavicle 1.26477e-014 9.77772e-015
rhumerus -62.822 1.87786 -60.9769
rradius 25.5324
rwrist 1.5791
rhand -36.4908 -1.22412
rfingers 7.12502
rthumb -9.58339 -30.9862
lclavicle 1.26477e-014 9.77772e-015
lhumerus -73.146 -18.6749 79.8367
lradius 37.1322
lwrist 3.62648
lhand -36.751 16.747
lfingers 7.12502
lthumb -9.83445 46.4973
rfemur -86.7073 -20.2891 15.7992
rtibia 119.495
rfoot -31.3629 7.78857
rtoes -23.4141
lfemur -83.4007 9.29508 -26.9733
ltibia 114.633
lfoot -27.905 -18.3683
ltoes -11.3183
130
root 1.04406 12.2192 -2.39493 16.7531 1.26338 5.17707
lowerback 38.2665 0.249696 -3.85647
upperback 6.21756 -1.3075 -0.937929
thorax -11.8248 -0.446716 1.55981
lowerneck -15.8484 -3.08993 -7.04221
upperneck -22.849 -2.29101 7.32922
head -4.23584 -0.861937 3.49768
rclavicle -1.77415e-014 -8.94531e-016
rhumerus -63.3268 1.17499 -60.4973
rradius 25.0639
rwrist 1.1698
rhand -36.7294 -1.50467
rfingers 7.12502
rthumb -9.81358 -31.256
lclavicle -1.77415e-014 -8.94531e-016
lhumerus -73.0095 -17.6334 78.9729
lradius 37.0446
lwrist 3.36574
lhand -36.7985 16.0043
lfingers 7.12502
lthumb -9.88022 45.7525
rfemur -87.7623 -20.6439 16.1477
rtibia 120.123
rfoot -31.34 7.98243
rtoes -22.776
lfemur -84.2729 9.08818 -27.1688
ltibia 115.09
lfoot -28.0743 -18.0754
ltoes -10.649
131
root 1.04058 12.1586 -2.40116 17.1316 1.28794 5.21094
lowerback 38.4426 0.322836 -3.8845
upperback 6.22118 -1.23059 -0.906308
thorax -11.8841 -0.409568 1.57659
lowerneck -15.8992 -3.08571 -7.07297
upperneck -23.0842 -2.25394 7.41016
head -4.30326 -0.841225 3.53456
rclavicle -9.14409e-015 7.85199e-015
rhumerus -63.7306 0.426533 -60.147
rradius 24.5909
rwrist 0.678439
rhand -36.9784 -2.07664
rfingers 7.12502
rthumb -10.0538 -31.8165
lclavicle -9.14409e-015 7.85199e-015
lhumerus -72.7491 -16.4889 77.8818
lradius 37.1669
lwrist 2.93704
lhand -36.2021 16.2725
lfingers 7.12502
lthumb -9.30479 46.0471
rfemur -88.7261 -20.8066 16.4366
rtibia 120.621
rfoot -31.2758 8.12402
rtoes -22.1269
lfemur -85.0238 8.93332 -27.4444
ltibia 115.44
lfoot -28.2723 -17.6329
ltoes -9.31535
132
root 1.03748 12.1053 -2.40453 17.4125 1.28748 5.24061
lowerback 38.6725 0.384819 -3.848
upperback 6.27261 -1.15234 -0.939066
thorax -11.9104 -0.375178 1.48883
lowerneck -15.9735 -3.1371 -7.02966
upperneck -23.3391 -2.30124 7.48949
head -4.36866 -0.868691 3.55707
rclavicle -1.90336e-014 -4.32357e-015
rhumerus -63.937 -0.622993 -59.6552
rradius 24.1391
rwrist 0.174388
rhand -37.1756 -2.06418
rfingers 7.12502
rthumb -10.244 -31.7947
lclavicle -1.90336e-014 -4.32357e-015
lhumerus -72.3609 -15.3945 76.7401
lradius 37.5512
lwrist 2.62978
lhand -35.2649 17.074
lfingers 7.12502
lthumb -8.40044 46.8869
rfemur -89.4299 -20.9043 16.6464
rtibia 121.058
rfoot -31.3666 8.13645
rtoes -22.071
lfemur -85.5579 8.80402 -27.8109
ltibia 115.701
lfoot -28.7771 -16.8575
ltoes -8.35217
133
root 1.03503 12.0559 -2.40506 17.6367 1.21302 5.4732
lowerback 38.9402 0.491647 -4.03018
upperback 6.34501 -1.10987 -0.993716
thorax -11.9173 -0.350166 1.50619
lowerneck -15.8846 -3.16098 -6.87247
upperneck -23.7691 -2.36346 7.36155
head -4.51982 -0.907926 3.49906
rclavicle 6.65929e-015 -2.83268e-015
rhumerus -63.9221 -1.80716 -58.9829
rradius 23.7442
rwrist -0.305491
rhand -37.1686 -1.86731
rfingers 7.12502
rthumb -10.2373 -31.5982
lclavicle 6.65929e-015 -2.83268e-015
lhumerus -71.8435 -14.3316 75.8473
lradius 37.9664
lwrist 2.5861
lhand -35.1045 17.4473
lfingers 7.12502
lthumb -8.24567 47.2664
rfemur -90.1413 -21.0439 16.5637
rtibia 121.509
rfoot -31.4584 8.14638
rtoes -21.9766
lfemur -85.9256 8.61159 -28.4711
ltibia 115.886
lfoot -29.4934 -15.8247
ltoes -7.05612
134
root 1.03152 12.0172 -2.4036 17.7629 1.21198 5.65329
lowerback 39.3898 0.559542 -4.16572
upperback 6.36386 -1.10256 -1.00715
thorax -12.046 -0.338583 1.55913
lowerneck -15.7153 -3.13461 -6.84028
upperneck -24.1389 -2.33288 7.32956
head -4.66556 -0.895296 3.49441
rclavicle -7.25564e-015 -8.74653e-015
rhumerus -63.8442 -2.95768 -58.3386
rradius 23.444
rwrist -0.699884
rhand -36.9899 -1.97677
rfingers 7.12502
rthumb -10.0649 -31.7161
lclavicle -7.25564e-015 -8.74653e-015
lhumerus -71.2535 -13.2445 75.015
lradius 38.4184
lwrist 2.47372
lhand -35.2812 17.2863
lfingers 7.12502
lthumb -8.41615 47.0986
rfemur -90.6645 -21.1078 16.4905
rtibia 121.887
rfoot -31.5644 7.97761
rtoes -21.8776
lfemur -86.1382 8.35414 -29.0936
ltibia 115.982
lfoot -30.3436 -14.3791
ltoes -6.83979
135
root 1.02943 11.9863 -2.39913 17.8283 1.24065 5.67405
lowerback 39.8714 0.603121 -4.13753
upperback 6.40911 -1.05897 -1.00799
thorax -12.1594 -0.316953 1.52431
lowerneck -15.7133 -3.10292 -6.86826
upperneck -24.3631 -2.26549 7.38246
head -4.74075 -0.85942 3.52284
rclavicle 1.26228e-014 5.76476e-015
rhumerus -63.6135 -4.16283 -57.8241
rradius 23.1584
rwrist -1.09722
rhand -36.9256 -2.10178
rfingers 7.12502
rthumb -10.0028 -31.8441
lclavicle 1.26228e-014 5.76476e-015
lhumerus -70.4636 -12.2813 74.2562
lradius 38.9167
lwrist 2.34213
lhand -35.5022 17.2439
lfingers 7.12502
lthumb -8.62948 47.0476
rfemur -90.8483 -21.0097 16.5367
rtibia 122.118
rfoot -31.8272 7.58756
rtoes -21.7946
lfemur -86.2156 8.07844 -29.5257
ltibia 115.973
lfoot -31.0527 -12.9247
ltoes -7.78871
136
root 1.03004 11.9563 -2.39652 18.0428 1.20331 5.58127
lowerback 40.156 0.65517 -4.0208
upperback 6.47282 -0.957174 -0.995413
thorax -12.1885 -0.275406 1.43234
lowerneck -15.7779 -3.09251 -6.77895
upperneck -24.631 -2.25732 7.30737
head -4.8221 -0.856871 3.4893
rclavicle -3.18055e-015 -1.89839e-014
rhumerus -63.1105 -5.54135 -57.2409
rradius 22.8656
rwrist -1.48519
rhand -37.3233 -2.27739
rfingers 7.12502
rthumb -10.3865 -32.0009
lclavicle -3.18055e-015 -1.89839e-014
lhumerus -69.3399 -11.2269 73.5679
lradius 39.451
lwrist 2.28724
lhand -36.1744 16.8925
lfingers 7.12502
lthumb -9.27808 46.6683
rfemur -91.0761 -20.7025 16.7497
rtibia 122.218
rfoot -32.1214 6.90393
rtoes -21.995
lfemur -86.4246 7.83559 -29.788
ltibia 116.047
lfoot -31.6805 -11.714
ltoes -6.35451
137
root 1.03111 11.9356 -2.39451 18.3394 1.18017 5.42948
lowerback 40.4304 0.695077 -3.85545
upperback 6.46521 -0.847686 -0.953302
thorax -12.2966 -0.230064 1.34407
lowerneck -15.7088 -3.09141 -6.67002
upperneck -24.9921 -2.27694 7.20144
head -4.95189 -0.871128 3.44566
rclavicle 8.94531e-015 2.48481e-015
rhumerus -62.5075 -6.79094 -56.8205
rradius 22.6898
rwrist -2.06669
rhand -38.0883 -2.61222
rfingers 7.12502
rthumb -11.1244 -32.2974
lclavicle 8.94531e-015 2.48481e-015
lhumerus -68.009 -10.0418 72.8724
lradius 40.0412
lwrist 2.47045
lhand -35.8766 16.0031
lfingers 7.12502
lthumb -8.99071 45.7915
rfemur -91.4017 -20.2544 17.0571
rtibia 122.252
rfoot -32.3465 5.94296
rtoes -22.5413
lfemur -86.5713 7.56205 -29.907
ltibia 116.178
lfoot -32.3482 -10.6811
ltoes -2.69364
138
root 1.03261 11.9295 -2.38607 18.5376 1.14478 5.22156
lowerback 40.7635 0.729526 -3.67153
upperback 6.44938 -0.737866 -0.899786
thorax -12.4325 -0.185127 1.25798
lowerneck -15.4737 -3.03337 -6.61179
upperneck -25.4338 -2.21582 7.11723
head -5.13595 -0.843575 3.42249
rclavicle -8.15017e-015 -1.32192e-014
rhumerus -61.747 -8.05844 -56.4455
rradius 22.4683
rwrist -2.57879
rhand -38.5777 -2.83023
rfingers 7.12502
rthumb -11.5964 -32.4894
lclavicle -8.15017e-015 -1.32192e-014
lhumerus -66.6289 -8.87615 72.3031
lradius 40.7077
lwrist 2.69867
lhand -34.5264 15.1731
lfingers 7.12502
lthumb -7.68765 45.0134
rfemur -91.5088 -19.6801 17.3323
rtibia 122.218
rfoot -32.541 5.03347
rtoes -22.549
lfemur -86.5451 7.26669 -29.9015
ltibia 116.206
lfoot -33.3971 -9.5933
ltoes -2.17524
